Coordinates
version=1
nRows=41
nColumns=38
inDegrees=no

Units are S.I. units (second, meters, Newtons, ...)
If the header above contains a line with 'inDegrees', this indicates whether rotational values are in degrees (yes) or radians (no).

endheader
time	pelvis_tilt	pelvis_list	pelvis_rotation	pelvis_tx	pelvis_ty	pelvis_tz	hip_flexion_r	hip_adduction_r	hip_rotation_r	knee_angle_r	ankle_angle_r	subtalar_angle_r	mtp_angle_r	hip_flexion_l	hip_adduction_l	hip_rotation_l	knee_angle_l	ankle_angle_l	subtalar_angle_l	mtp_angle_l	lumbar_extension	lumbar_bending	lumbar_rotation	arm_flex_r	arm_add_r	arm_rot_r	elbow_flex_r	pro_sup_r	wrist_flex_r	wrist_dev_r	arm_flex_l	arm_add_l	arm_rot_l	elbow_flex_l	pro_sup_l	wrist_flex_l	wrist_dev_l
1.06	-2.92934	1.04903	1.40064	0.550577	0.294725	1.00223	0.781404	0.06739	-0.0569542	0.331612	-0.213146	0	0	0.576625	-0.0831571	0.189145	1.1777	-0.27799	0	0	0.423383	0.233175	0.144737	-0.389906	-0.31384	-0.10431	0.437317	1.39482	0	0	-0.0347315	-0.0848008	-0.801827	0.326698	1.46853	0	0
1.07	-2.93375	1.0504	1.40765	0.548839	0.282676	1.00425	0.767853	0.0658314	-0.0600727	0.333377	-0.204687	0	0	0.599406	-0.0735989	0.192569	1.20956	-0.242516	0	0	0.424572	0.229572	0.148953	-0.390359	-0.317709	-0.108524	0.447867	1.40227	0	0	-0.0324618	-0.0859684	-0.801983	0.325306	1.47194	0	0
1.08	-2.94093	1.05137	1.4149	0.547018	0.270655	1.00635	0.754775	0.0648403	-0.0604336	0.334151	-0.199175	0	0	0.62255	-0.064232	0.192543	1.23578	-0.214578	0	0	0.426653	0.225559	0.155798	-0.39181	-0.321134	-0.11431	0.459739	1.41056	0	0	-0.0311709	-0.0874967	-0.801613	0.323409	1.47394	0	0
1.09	-2.94986	1.05171	1.42191	0.545125	0.258559	1.00848	0.742424	0.0644336	-0.0593863	0.33462	-0.194241	0	0	0.644799	-0.0566704	0.186453	1.25584	-0.184071	0	0	0.430577	0.221646	0.164693	-0.39552	-0.323363	-0.12493	0.47386	1.42257	0	0	-0.0312094	-0.0895579	-0.799946	0.320775	1.47646	0	0
1.1	-2.9612	1.05507	1.42934	0.543368	0.246304	1.01092	0.726698	0.063442	-0.0568395	0.334406	-0.190709	0	0	0.664991	-0.0492141	0.161953	1.27562	-0.163711	0	0	0.431183	0.216757	0.174874	-0.397572	-0.325796	-0.134694	0.487024	1.43305	0	0	-0.0322846	-0.0915216	-0.798056	0.318631	1.47867	0	0
1.11	-2.96953	1.05618	1.43518	0.541463	0.234507	1.01317	0.712913	0.0637132	-0.0530513	0.333047	-0.187759	0	0	0.683746	-0.0456469	0.167486	1.2773	-0.14284	0	0	0.433976	0.212694	0.182958	-0.399953	-0.327482	-0.146051	0.502286	1.4442	0	0	-0.0343229	-0.0934179	-0.796478	0.318428	1.48035	0	0
1.12	-2.97879	1.05942	1.44087	0.539767	0.222563	1.01561	0.696776	0.0632778	-0.0496774	0.332086	-0.1853	0	0	0.701292	-0.043062	0.155426	1.27917	-0.127928	0	0	0.43449	0.208507	0.191782	-0.402812	-0.329053	-0.158307	0.518865	1.45578	0	0	-0.03684	-0.0948063	-0.794911	0.318388	1.48155	0	0
1.13	-2.987	1.06309	1.44561	0.538177	0.210714	1.01805	0.679744	0.062876	-0.0468389	0.330002	-0.183848	0	0	0.717904	-0.0424061	0.142481	1.27568	-0.115093	0	0	0.43453	0.20473	0.200065	-0.405412	-0.330209	-0.171323	0.535669	1.46634	0	0	-0.0398796	-0.0956215	-0.793354	0.319529	1.48246	0	0
1.14	-2.99496	1.06665	1.45034	0.536688	0.199019	1.02041	0.662634	0.0619539	-0.0461416	0.327072	-0.183237	0	0	0.73402	-0.0424051	0.130623	1.26745	-0.104596	0	0	0.434235	0.201057	0.20794	-0.408	-0.330925	-0.18556	0.553569	1.47426	0	0	-0.0430482	-0.0959282	-0.791495	0.321561	1.48348	0	0
1.15	-2.99921	1.07334	1.4513	0.535244	0.187334	1.02281	0.641638	0.0621805	-0.047105	0.323045	-0.183141	0	0	0.749286	-0.0468463	0.109083	1.26516	-0.0928085	0	0	0.429137	0.199155	0.216225	-0.411443	-0.331972	-0.199763	0.574603	1.48096	0	0	-0.0452471	-0.0954218	-0.787723	0.32434	1.48556	0	0
1.16	-3.00813	1.07515	1.46012	0.534144	0.176085	1.02504	0.626424	0.0584233	-0.0492294	0.319081	-0.184004	0	0	0.761897	-0.0430078	0.109833	1.23603	-0.0844245	0	0	0.429783	0.193873	0.221405	-0.41378	-0.331931	-0.212573	0.593528	1.48676	0	0	-0.0467907	-0.0959795	-0.782933	0.324671	1.48803	0	0
1.17	-3.01443	1.07791	1.46552	0.533019	0.164817	1.02715	0.610094	0.0564074	-0.0518402	0.315193	-0.185028	0	0	0.77532	-0.0433442	0.100589	1.21209	-0.0771261	0	0	0.428665	0.190465	0.227588	-0.417191	-0.331684	-0.226984	0.614519	1.4893	0	0	-0.0477808	-0.0956776	-0.777851	0.325771	1.49041	0	0
1.18	-3.02176	1.07964	1.47105	0.531892	0.1536	1.02911	0.595031	0.0545393	-0.0530499	0.311557	-0.186694	0	0	0.788147	-0.0437969	0.0913605	1.18282	-0.0718843	0	0	0.428624	0.187132	0.234496	-0.420464	-0.33098	-0.241329	0.635132	1.48865	0	0	-0.0488329	-0.0953565	-0.771836	0.326971	1.49358	0	0
1.19	-3.03115	1.07955	1.47728	0.530718	0.142383	1.03079	0.58216	0.052546	-0.0524254	0.30793	-0.188791	0	0	0.801115	-0.0440547	0.0818276	1.14804	-0.0691515	0	0	0.430826	0.183718	0.24275	-0.42463	-0.329904	-0.254551	0.656064	1.48643	0	0	-0.0501853	-0.0951505	-0.764757	0.328247	1.49748	0	0
1.2	-3.04103	1.07896	1.4838	0.529515	0.1312	1.03228	0.56993	0.0503622	-0.051648	0.304331	-0.190726	0	0	0.813095	-0.0442095	0.0724654	1.10787	-0.0677471	0	0	0.433761	0.180011	0.25121	-0.4291	-0.328871	-0.265281	0.676911	1.48484	0	0	-0.0513649	-0.0948823	-0.75759	0.330221	1.5009	0	0
1.21	-3.05118	1.07831	1.4899	0.528263	0.120027	1.03367	0.557923	0.0483831	-0.0501377	0.301191	-0.1921	0	0	0.823009	-0.0446159	0.0622514	1.0628	-0.0650201	0	0	0.436719	0.176213	0.259776	-0.432762	-0.327881	-0.273666	0.696706	1.48333	0	0	-0.0523867	-0.0944127	-0.751278	0.332834	1.50305	0	0
1.22	-3.06134	1.0774	1.49548	0.526982	0.108857	1.0349	0.546209	0.0467295	-0.0479312	0.298045	-0.19333	0	0	0.831062	-0.0453749	0.051365	1.01311	-0.0634307	0	0	0.439651	0.172669	0.268087	-0.4356	-0.327067	-0.280574	0.715951	1.48133	0	0	-0.0531963	-0.093942	-0.745223	0.335415	1.50457	0	0
1.23	-3.07094	1.07649	1.50017	0.525678	0.0976873	1.03599	0.534434	0.0454933	-0.0452615	0.294853	-0.1953	0	0	0.837725	-0.0467362	0.0393824	0.960036	-0.0661158	0	0	0.442103	0.169687	0.276057	-0.438116	-0.326627	-0.286278	0.735493	1.47962	0	0	-0.0536098	-0.0934436	-0.739063	0.337764	1.50584	0	0
1.24	-3.08012	1.07689	1.50359	0.524309	0.0865384	1.03701	0.521157	0.0447741	-0.0415087	0.29139	-0.197675	0	0	0.841281	-0.0492512	0.0240488	0.903286	-0.072763	0	0	0.442292	0.166997	0.284212	-0.439799	-0.326835	-0.290253	0.755164	1.47972	0	0	-0.0533217	-0.0927898	-0.73342	0.340388	1.50693	0	0
1.25	-3.08791	1.07808	1.50556	0.522974	0.0753419	1.0379	0.506757	0.0445347	-0.03782	0.287503	-0.199318	0	0	0.84218	-0.0527104	0.00661239	0.841664	-0.0816004	0	0	0.441336	0.164809	0.291555	-0.440397	-0.327489	-0.292899	0.77392	1.48116	0	0	-0.0526916	-0.0917625	-0.728954	0.343313	1.507	0	0
1.26	-3.09451	1.07959	1.50632	0.521656	0.0640236	1.03863	0.491657	0.0447008	-0.0345662	0.283143	-0.20033	0	0	0.840734	-0.0567857	-0.0130231	0.775734	-0.092883	0	0	0.440109	0.163138	0.298198	-0.440352	-0.328485	-0.294049	0.791548	1.48441	0	0	-0.0520671	-0.0906049	-0.72559	0.34644	1.50591	0	0
1.27	-3.09956	1.08244	1.50544	0.520358	0.0526308	1.03923	0.474696	0.045423	-0.031452	0.278199	-0.201306	0	0	0.835689	-0.0618243	-0.0365342	0.705614	-0.109931	0	0	0.436641	0.162315	0.304356	-0.439875	-0.329701	-0.295457	0.809526	1.48997	0	0	-0.0507902	-0.0893994	-0.721916	0.34926	1.50416	0	0
1.28	-3.10303	1.08592	1.50314	0.519139	0.0411691	1.03962	0.456667	0.0464916	-0.0290826	0.272776	-0.202031	0	0	0.82836	-0.0667482	-0.0642364	0.633441	-0.128906	0	0	0.43208	0.162268	0.309653	-0.439041	-0.331173	-0.29671	0.827453	1.4963	0	0	-0.0493208	-0.0878671	-0.718964	0.352324	1.50252	0	0
1.29	-3.10486	1.08948	1.49958	0.517989	0.0296415	1.03974	0.438184	0.0479438	-0.027153	0.266941	-0.20193	0	0	0.820645	-0.0715391	-0.0940007	0.558613	-0.152507	0	0	0.427084	0.163016	0.314145	-0.438342	-0.332752	-0.298056	0.845834	1.50254	0	0	-0.0477855	-0.0860815	-0.716147	0.3557	1.50115	0	0
1.3	-3.10466	1.09373	1.49376	0.516895	0.0180649	1.03962	0.418736	0.0501472	-0.0250219	0.26084	-0.201432	0	0	0.8111	-0.0767268	-0.125705	0.482266	-0.17982	0	0	0.420928	0.164894	0.31842	-0.437864	-0.334904	-0.299266	0.864744	1.5094	0	0	-0.0463521	-0.0839096	-0.713308	0.359894	1.50014	0	0
1.31	-3.1035	1.09771	1.48705	0.515892	0.00640486	1.03921	0.399391	0.0524672	-0.0233263	0.254651	-0.200591	0	0	0.79994	-0.0808191	-0.160273	0.405964	-0.208666	0	0	0.415113	0.167225	0.322202	-0.43767	-0.337142	-0.300435	0.883471	1.51643	0	0	-0.0454284	-0.0815183	-0.710965	0.36506	1.49879	0	0
1.32	-3.10123	1.10077	1.47886	0.514945	-0.00528159	1.03839	0.381056	0.0552775	-0.0212503	0.248894	-0.199233	0	0	0.788354	-0.0841056	-0.19292	0.32851	-0.238184	0	0	0.410147	0.170527	0.326245	-0.438618	-0.339471	-0.301791	0.902757	1.52407	0	0	-0.0450678	-0.0787348	-0.7089	0.371506	1.49672	0	0
1.33	-3.09715	1.10279	1.46894	0.5141	-0.0170345	1.03719	0.363525	0.0587987	-0.0184382	0.243039	-0.197548	0	0	0.777932	-0.086268	-0.222165	0.25272	-0.265289	0	0	0.406656	0.17495	0.330146	-0.440609	-0.341919	-0.303371	0.921855	1.53221	0	0	-0.0453865	-0.0755524	-0.706733	0.379142	1.49345	0	0
1.34	-3.09159	1.10328	1.45724	0.513301	-0.0288602	1.03553	0.347615	0.0630465	-0.015396	0.237816	-0.19539	0	0	0.770006	-0.0878979	-0.246255	0.181914	-0.283575	0	0	0.405235	0.180624	0.334562	-0.444094	-0.344307	-0.305525	0.941022	1.53888	0	0	-0.0465112	-0.0720866	-0.704322	0.388102	1.48991	0	0
1.35	-3.08563	1.10202	1.44496	0.512525	-0.0407164	1.03343	0.333672	0.0673956	-0.0117769	0.233453	-0.192587	0	0	0.764509	-0.0889491	-0.265072	0.116224	-0.297897	0	0	0.405734	0.186917	0.339116	-0.448488	-0.346516	-0.307808	0.959866	1.54582	0	0	-0.0483394	-0.06864	-0.700949	0.398084	1.4854	0	0
1.36	-3.07895	1.09914	1.43226	0.51184	-0.0525835	1.03099	0.32163	0.0719881	-0.00826498	0.230319	-0.189571	0	0	0.761292	-0.08954	-0.276568	0.0564282	-0.308506	0	0	0.408365	0.193463	0.342839	-0.452653	-0.348609	-0.309501	0.976903	1.5524	0	0	-0.051307	-0.0653092	-0.696622	0.409443	1.48032	0	0
1.37	-3.09292	1.07379	1.4477	0.511425	-0.0634923	1.02776	0.336886	0.0669167	-0.00414016	0.230576	-0.186501	0	0	0.792884	-0.0788202	-0.260331	0	-0.33845	0	0	0.44088	0.187662	0.337882	-0.452628	-0.344554	-0.308436	0.981614	1.56065	0	0	-0.0566785	-0.0685209	-0.68958	0.414949	1.47182	0	0
1.38	-3.06667	1.08666	1.40855	0.510665	-0.0764885	1.02494	0.306487	0.0807008	0.000153205	0.228766	-0.179673	0	0	0.767852	-0.0909765	-0.289324	0	-0.317187	0	0	0.422568	0.206908	0.34865	-0.462553	-0.350702	-0.314936	1.00789	1.56603	0	0	-0.0621033	-0.0602736	-0.676999	0.436486	1.45828	0	0
1.39	-3.06116	1.08307	1.39811	0.510101	-0.0885155	1.02195	0.297796	0.0839602	0.001235	0.231123	-0.174426	0	0	0.771929	-0.0910441	-0.296071	0	-0.309081	0	0	0.425073	0.212105	0.350469	-0.465078	-0.352034	-0.315574	1.02074	1.56732	0	0	-0.0657735	-0.0578952	-0.668166	0.449427	1.4473	0	0
1.4	-3.05866	1.07887	1.39024	0.509521	-0.100649	1.01887	0.29146	0.0857963	0.00177052	0.236309	-0.167777	0	0	0.777477	-0.0896705	-0.30263	0	-0.296665	0	0	0.428272	0.215927	0.352648	-0.467189	-0.352953	-0.315571	1.03154	1.57025	0	0	-0.0703215	-0.0565787	-0.655061	0.46277	1.4312	0	0
1.41	-3.05811	1.07647	1.38517	0.509079	-0.112883	1.01603	0.284628	0.0859287	0.00231116	0.243744	-0.161185	0	0	0.781492	-0.0879402	-0.304951	0	-0.283707	0	0	0.428982	0.217791	0.354289	-0.467595	-0.353324	-0.315716	1.0399	1.5708	0	0	-0.0734317	-0.055542	-0.642713	0.474415	1.41644	0	0
1.42	-3.0604	1.07633	1.38382	0.508696	-0.125367	1.01357	0.276367	0.083933	0.00268419	0.252519	-0.156314	0	0	0.78611	-0.0859416	-0.30933	0	-0.271117	0	0	0.427323	0.216942	0.356133	-0.466473	-0.352672	-0.315647	1.04455	1.5708	0	0	-0.0738846	-0.0550242	-0.632965	0.482178	1.40704	0	0
1.43	-3.06396	1.07662	1.38471	0.508338	-0.138053	1.01127	0.268122	0.0808953	0.00299338	0.262049	-0.153715	0	0	0.790294	-0.0822867	-0.309718	0	-0.268546	0	0	0.425506	0.214743	0.357996	-0.465447	-0.350655	-0.316302	1.04684	1.5708	0	0	-0.0724929	-0.0543478	-0.626912	0.487216	1.40231	0	0
1.44	-3.06739	1.0774	1.38567	0.507934	-0.150896	1.0091	0.25962	0.077696	0.00456518	0.27192	-0.152158	0	0	0.792825	-0.077729	-0.304098	0	-0.271238	0	0	0.422758	0.212244	0.360004	-0.464465	-0.348123	-0.317086	1.0475	1.57073	0	0	-0.070125	-0.053272	-0.622967	0.490893	1.39898	0	0
1.45	-3.07051	1.07922	1.38721	0.507596	-0.164035	1.00716	0.250501	0.0738657	0.00474498	0.283274	-0.151006	0	0	0.796027	-0.0749677	-0.30007	0	-0.274789	0	0	0.418911	0.208968	0.361326	-0.4632	-0.344709	-0.318226	1.04593	1.57058	0	0	-0.0677779	-0.0524372	-0.618596	0.493949	1.39562	0	0
1.46	-3.07311	1.08381	1.38878	0.507329	-0.177506	1.00555	0.239542	0.0693249	0.00127824	0.297908	-0.150724	0	0	0.794144	-0.0720503	-0.290598	0	-0.279541	0	0	0.411842	0.204724	0.362742	-0.461144	-0.339719	-0.321023	1.04157	1.5708	0	0	-0.0655906	-0.0522672	-0.610157	0.497174	1.38805	0	0
